<mxfile host="app.diagrams.net" agent="Mozilla/5.0 (X11; Linux x86_64; rv:139.0) Gecko/20100101 Firefox/139.0" version="27.1.4">
  <diagram name="Page-1" id="GP7IrBBnLj05LESUmmev">
    <mxGraphModel grid="1" page="1" gridSize="10" guides="1" tooltips="1" connect="1" arrows="1" fold="1" pageScale="1" pageWidth="850" pageHeight="1100" math="0" shadow="0">
      <root>
        <mxCell id="0" />
        <mxCell id="1" parent="0" />
        <mxCell id="FNcLjiw7w3rflL2UHD69-10" style="edgeStyle=orthogonalEdgeStyle;rounded=0;orthogonalLoop=1;jettySize=auto;html=1;exitX=0.5;exitY=0.5;exitDx=0;exitDy=0;exitPerimeter=0;" edge="1" parent="1" source="FNcLjiw7w3rflL2UHD69-1" target="FNcLjiw7w3rflL2UHD69-7">
          <mxGeometry relative="1" as="geometry">
            <mxPoint x="240" y="380" as="targetPoint" />
          </mxGeometry>
        </mxCell>
        <mxCell id="FNcLjiw7w3rflL2UHD69-1" value="Aluno" style="shape=umlActor;verticalLabelPosition=bottom;verticalAlign=top;html=1;outlineConnect=0;" vertex="1" parent="1">
          <mxGeometry x="-220" y="390" width="30" height="60" as="geometry" />
        </mxCell>
        <mxCell id="FNcLjiw7w3rflL2UHD69-30" style="edgeStyle=orthogonalEdgeStyle;rounded=0;orthogonalLoop=1;jettySize=auto;html=1;exitX=1;exitY=0;exitDx=0;exitDy=0;entryX=0;entryY=0.5;entryDx=0;entryDy=0;" edge="1" parent="1" source="FNcLjiw7w3rflL2UHD69-7" target="FNcLjiw7w3rflL2UHD69-27">
          <mxGeometry relative="1" as="geometry" />
        </mxCell>
        <mxCell id="FNcLjiw7w3rflL2UHD69-31" style="edgeStyle=orthogonalEdgeStyle;rounded=0;orthogonalLoop=1;jettySize=auto;html=1;exitX=1;exitY=1;exitDx=0;exitDy=0;entryX=0;entryY=0.5;entryDx=0;entryDy=0;" edge="1" parent="1" source="FNcLjiw7w3rflL2UHD69-7" target="FNcLjiw7w3rflL2UHD69-29">
          <mxGeometry relative="1" as="geometry" />
        </mxCell>
        <mxCell id="FNcLjiw7w3rflL2UHD69-32" style="edgeStyle=orthogonalEdgeStyle;rounded=0;orthogonalLoop=1;jettySize=auto;html=1;exitX=1;exitY=0.5;exitDx=0;exitDy=0;" edge="1" parent="1" source="FNcLjiw7w3rflL2UHD69-7" target="FNcLjiw7w3rflL2UHD69-28">
          <mxGeometry relative="1" as="geometry" />
        </mxCell>
        <mxCell id="FNcLjiw7w3rflL2UHD69-7" value="App" style="ellipse;whiteSpace=wrap;html=1;" vertex="1" parent="1">
          <mxGeometry x="100" y="400" width="120" height="80" as="geometry" />
        </mxCell>
        <mxCell id="FNcLjiw7w3rflL2UHD69-50" style="edgeStyle=orthogonalEdgeStyle;rounded=0;orthogonalLoop=1;jettySize=auto;html=1;exitX=1;exitY=0;exitDx=0;exitDy=0;entryX=0;entryY=0.5;entryDx=0;entryDy=0;" edge="1" parent="1" source="FNcLjiw7w3rflL2UHD69-27" target="FNcLjiw7w3rflL2UHD69-45">
          <mxGeometry relative="1" as="geometry" />
        </mxCell>
        <mxCell id="FNcLjiw7w3rflL2UHD69-51" style="edgeStyle=orthogonalEdgeStyle;rounded=0;orthogonalLoop=1;jettySize=auto;html=1;exitX=1;exitY=0.5;exitDx=0;exitDy=0;entryX=0;entryY=0.5;entryDx=0;entryDy=0;" edge="1" parent="1" source="FNcLjiw7w3rflL2UHD69-27" target="FNcLjiw7w3rflL2UHD69-47">
          <mxGeometry relative="1" as="geometry" />
        </mxCell>
        <mxCell id="FNcLjiw7w3rflL2UHD69-27" value="Gerenciamente de Matricula" style="ellipse;whiteSpace=wrap;html=1;" vertex="1" parent="1">
          <mxGeometry x="220" y="50" width="140" height="70" as="geometry" />
        </mxCell>
        <mxCell id="FNcLjiw7w3rflL2UHD69-34" style="edgeStyle=orthogonalEdgeStyle;rounded=0;orthogonalLoop=1;jettySize=auto;html=1;exitX=1;exitY=0.5;exitDx=0;exitDy=0;entryX=0;entryY=0.5;entryDx=0;entryDy=0;" edge="1" parent="1" source="FNcLjiw7w3rflL2UHD69-28" target="FNcLjiw7w3rflL2UHD69-33">
          <mxGeometry relative="1" as="geometry" />
        </mxCell>
        <mxCell id="FNcLjiw7w3rflL2UHD69-28" value="Historico" style="ellipse;whiteSpace=wrap;html=1;" vertex="1" parent="1">
          <mxGeometry x="285" y="405" width="140" height="70" as="geometry" />
        </mxCell>
        <mxCell id="FNcLjiw7w3rflL2UHD69-29" value="Materias" style="ellipse;whiteSpace=wrap;html=1;" vertex="1" parent="1">
          <mxGeometry x="285" y="560" width="140" height="70" as="geometry" />
        </mxCell>
        <mxCell id="FNcLjiw7w3rflL2UHD69-43" style="edgeStyle=orthogonalEdgeStyle;rounded=0;orthogonalLoop=1;jettySize=auto;html=1;exitX=1;exitY=0.5;exitDx=0;exitDy=0;entryX=0;entryY=0.5;entryDx=0;entryDy=0;" edge="1" parent="1" source="FNcLjiw7w3rflL2UHD69-33" target="FNcLjiw7w3rflL2UHD69-42">
          <mxGeometry relative="1" as="geometry" />
        </mxCell>
        <mxCell id="FNcLjiw7w3rflL2UHD69-33" value="Lista de Semestres Anteriores" style="ellipse;whiteSpace=wrap;html=1;" vertex="1" parent="1">
          <mxGeometry x="490" y="405" width="140" height="70" as="geometry" />
        </mxCell>
        <mxCell id="FNcLjiw7w3rflL2UHD69-40" style="edgeStyle=orthogonalEdgeStyle;rounded=0;orthogonalLoop=1;jettySize=auto;html=1;" edge="1" parent="1" source="FNcLjiw7w3rflL2UHD69-35" target="FNcLjiw7w3rflL2UHD69-36">
          <mxGeometry relative="1" as="geometry" />
        </mxCell>
        <mxCell id="FNcLjiw7w3rflL2UHD69-41" style="edgeStyle=orthogonalEdgeStyle;rounded=0;orthogonalLoop=1;jettySize=auto;html=1;exitX=1;exitY=0.5;exitDx=0;exitDy=0;entryX=0;entryY=0.5;entryDx=0;entryDy=0;" edge="1" parent="1" source="FNcLjiw7w3rflL2UHD69-35" target="FNcLjiw7w3rflL2UHD69-37">
          <mxGeometry relative="1" as="geometry" />
        </mxCell>
        <mxCell id="FNcLjiw7w3rflL2UHD69-35" value="Mostra Todas as Materias Encurso" style="ellipse;whiteSpace=wrap;html=1;" vertex="1" parent="1">
          <mxGeometry x="460" y="550" width="140" height="90" as="geometry" />
        </mxCell>
        <mxCell id="FNcLjiw7w3rflL2UHD69-36" value="Notas de Prova e Trabalhos Dados e Media Final" style="ellipse;whiteSpace=wrap;html=1;" vertex="1" parent="1">
          <mxGeometry x="660" y="510" width="140" height="70" as="geometry" />
        </mxCell>
        <mxCell id="FNcLjiw7w3rflL2UHD69-37" value="Frequencia e a Faltas" style="ellipse;whiteSpace=wrap;html=1;" vertex="1" parent="1">
          <mxGeometry x="660" y="610" width="140" height="70" as="geometry" />
        </mxCell>
        <mxCell id="FNcLjiw7w3rflL2UHD69-38" style="edgeStyle=orthogonalEdgeStyle;rounded=0;orthogonalLoop=1;jettySize=auto;html=1;exitX=1;exitY=0.5;exitDx=0;exitDy=0;entryX=-0.007;entryY=0.444;entryDx=0;entryDy=0;entryPerimeter=0;" edge="1" parent="1" source="FNcLjiw7w3rflL2UHD69-29" target="FNcLjiw7w3rflL2UHD69-35">
          <mxGeometry relative="1" as="geometry" />
        </mxCell>
        <mxCell id="FNcLjiw7w3rflL2UHD69-42" value="Mostras as Materias Cursadas no Semestre, Notas e Faltas" style="ellipse;whiteSpace=wrap;html=1;" vertex="1" parent="1">
          <mxGeometry x="660" y="370" width="140" height="70" as="geometry" />
        </mxCell>
        <mxCell id="FNcLjiw7w3rflL2UHD69-44" value="Fazer a Matricula" style="ellipse;whiteSpace=wrap;html=1;" vertex="1" parent="1">
          <mxGeometry x="190" y="-130" width="140" height="70" as="geometry" />
        </mxCell>
        <mxCell id="FNcLjiw7w3rflL2UHD69-45" value="Pedir para trancar Semestre" style="ellipse;whiteSpace=wrap;html=1;" vertex="1" parent="1">
          <mxGeometry x="560" y="-140" width="140" height="70" as="geometry" />
        </mxCell>
        <mxCell id="FNcLjiw7w3rflL2UHD69-56" style="edgeStyle=orthogonalEdgeStyle;rounded=0;orthogonalLoop=1;jettySize=auto;html=1;exitX=0;exitY=0.5;exitDx=0;exitDy=0;entryX=1;entryY=1;entryDx=0;entryDy=0;" edge="1" parent="1" source="FNcLjiw7w3rflL2UHD69-46" target="FNcLjiw7w3rflL2UHD69-27">
          <mxGeometry relative="1" as="geometry" />
        </mxCell>
        <mxCell id="FNcLjiw7w3rflL2UHD69-46" value="Baixar os Documentos" style="ellipse;whiteSpace=wrap;html=1;" vertex="1" parent="1">
          <mxGeometry x="890" y="160" width="140" height="70" as="geometry" />
        </mxCell>
        <mxCell id="FNcLjiw7w3rflL2UHD69-47" value="Pedir Documento ligados a instituição" style="ellipse;whiteSpace=wrap;html=1;" vertex="1" parent="1">
          <mxGeometry x="590" y="50" width="140" height="70" as="geometry" />
        </mxCell>
        <mxCell id="FNcLjiw7w3rflL2UHD69-54" style="edgeStyle=orthogonalEdgeStyle;rounded=0;orthogonalLoop=1;jettySize=auto;html=1;exitX=0;exitY=1;exitDx=0;exitDy=0;exitPerimeter=0;entryX=1;entryY=0.5;entryDx=0;entryDy=0;" edge="1" parent="1" source="FNcLjiw7w3rflL2UHD69-48" target="FNcLjiw7w3rflL2UHD69-46">
          <mxGeometry relative="1" as="geometry" />
        </mxCell>
        <mxCell id="FNcLjiw7w3rflL2UHD69-48" value="Secretaria" style="shape=umlActor;verticalLabelPosition=bottom;verticalAlign=top;html=1;" vertex="1" parent="1">
          <mxGeometry x="1260" y="-60" width="30" height="60" as="geometry" />
        </mxCell>
        <mxCell id="FNcLjiw7w3rflL2UHD69-49" style="edgeStyle=orthogonalEdgeStyle;rounded=0;orthogonalLoop=1;jettySize=auto;html=1;exitX=0.5;exitY=0;exitDx=0;exitDy=0;entryX=0.535;entryY=0.975;entryDx=0;entryDy=0;entryPerimeter=0;" edge="1" parent="1" source="FNcLjiw7w3rflL2UHD69-27" target="FNcLjiw7w3rflL2UHD69-44">
          <mxGeometry relative="1" as="geometry" />
        </mxCell>
        <mxCell id="FNcLjiw7w3rflL2UHD69-53" style="edgeStyle=orthogonalEdgeStyle;rounded=0;orthogonalLoop=1;jettySize=auto;html=1;exitX=1;exitY=0.5;exitDx=0;exitDy=0;entryX=0;entryY=0.3333333333333333;entryDx=0;entryDy=0;entryPerimeter=0;" edge="1" parent="1" source="FNcLjiw7w3rflL2UHD69-47" target="FNcLjiw7w3rflL2UHD69-48">
          <mxGeometry relative="1" as="geometry" />
        </mxCell>
        <mxCell id="FNcLjiw7w3rflL2UHD69-55" style="edgeStyle=orthogonalEdgeStyle;rounded=0;orthogonalLoop=1;jettySize=auto;html=1;exitX=1;exitY=0.5;exitDx=0;exitDy=0;entryX=0.5;entryY=0;entryDx=0;entryDy=0;entryPerimeter=0;" edge="1" parent="1" source="FNcLjiw7w3rflL2UHD69-45" target="FNcLjiw7w3rflL2UHD69-48">
          <mxGeometry relative="1" as="geometry" />
        </mxCell>
        <mxCell id="FNcLjiw7w3rflL2UHD69-59" style="edgeStyle=orthogonalEdgeStyle;rounded=0;orthogonalLoop=1;jettySize=auto;html=1;exitX=0.5;exitY=0;exitDx=0;exitDy=0;entryX=0.5;entryY=1;entryDx=0;entryDy=0;" edge="1" parent="1" source="FNcLjiw7w3rflL2UHD69-57" target="FNcLjiw7w3rflL2UHD69-35">
          <mxGeometry relative="1" as="geometry" />
        </mxCell>
        <mxCell id="FNcLjiw7w3rflL2UHD69-57" value="O sistema deve permitir ao Aluno consultar suas notas (de provas e trabalhos) e o percentual de frequência para cada disciplina do semestre vigente" style="html=1;whiteSpace=wrap;" vertex="1" parent="1">
          <mxGeometry x="415" y="690" width="230" height="70" as="geometry" />
        </mxCell>
        <mxCell id="FNcLjiw7w3rflL2UHD69-62" style="edgeStyle=orthogonalEdgeStyle;rounded=0;orthogonalLoop=1;jettySize=auto;html=1;exitX=0.5;exitY=1;exitDx=0;exitDy=0;entryX=0.5;entryY=0;entryDx=0;entryDy=0;" edge="1" parent="1" source="FNcLjiw7w3rflL2UHD69-60" target="FNcLjiw7w3rflL2UHD69-33">
          <mxGeometry relative="1" as="geometry" />
        </mxCell>
        <mxCell id="FNcLjiw7w3rflL2UHD69-60" value="O sistema deve exibir o histórico acadêmico completo do Aluno, permitindo a consulta de notas e faltas de semestres anteriores." style="html=1;whiteSpace=wrap;" vertex="1" parent="1">
          <mxGeometry x="432.5" y="300" width="255" height="60" as="geometry" />
        </mxCell>
        <mxCell id="FNcLjiw7w3rflL2UHD69-64" style="edgeStyle=orthogonalEdgeStyle;rounded=0;orthogonalLoop=1;jettySize=auto;html=1;exitX=1;exitY=0.5;exitDx=0;exitDy=0;entryX=0;entryY=0.5;entryDx=0;entryDy=0;" edge="1" parent="1" source="FNcLjiw7w3rflL2UHD69-63" target="FNcLjiw7w3rflL2UHD69-44">
          <mxGeometry relative="1" as="geometry" />
        </mxCell>
        <mxCell id="FNcLjiw7w3rflL2UHD69-63" value="O sistema deve permitir que o Aluno realize o processo de rematrícula online ao final de cada semestre" style="html=1;whiteSpace=wrap;" vertex="1" parent="1">
          <mxGeometry x="-10" y="-230" width="255" height="60" as="geometry" />
        </mxCell>
        <mxCell id="FNcLjiw7w3rflL2UHD69-69" style="edgeStyle=orthogonalEdgeStyle;rounded=0;orthogonalLoop=1;jettySize=auto;html=1;exitX=0.5;exitY=1;exitDx=0;exitDy=0;entryX=0.5;entryY=0;entryDx=0;entryDy=0;" edge="1" parent="1" source="FNcLjiw7w3rflL2UHD69-65" target="FNcLjiw7w3rflL2UHD69-45">
          <mxGeometry relative="1" as="geometry" />
        </mxCell>
        <mxCell id="FNcLjiw7w3rflL2UHD69-65" value="O sistema deve permitir que o Aluno solicite o trancamento do semestre." style="html=1;whiteSpace=wrap;" vertex="1" parent="1">
          <mxGeometry x="520" y="-260" width="255" height="60" as="geometry" />
        </mxCell>
        <mxCell id="FNcLjiw7w3rflL2UHD69-68" style="edgeStyle=orthogonalEdgeStyle;rounded=0;orthogonalLoop=1;jettySize=auto;html=1;exitX=0.5;exitY=1;exitDx=0;exitDy=0;entryX=0.5;entryY=0;entryDx=0;entryDy=0;" edge="1" parent="1" source="FNcLjiw7w3rflL2UHD69-66" target="FNcLjiw7w3rflL2UHD69-47">
          <mxGeometry relative="1" as="geometry" />
        </mxCell>
        <mxCell id="FNcLjiw7w3rflL2UHD69-66" value="O sistema deve permitir que o Aluno solicite documentos acadêmicos (ex: atestado de matrícula, histórico escolar)." style="html=1;whiteSpace=wrap;" vertex="1" parent="1">
          <mxGeometry x="550" y="-40" width="255" height="60" as="geometry" />
        </mxCell>
        <mxCell id="FNcLjiw7w3rflL2UHD69-70" style="edgeStyle=orthogonalEdgeStyle;rounded=0;orthogonalLoop=1;jettySize=auto;html=1;exitX=0.5;exitY=0;exitDx=0;exitDy=0;" edge="1" parent="1" source="FNcLjiw7w3rflL2UHD69-67" target="FNcLjiw7w3rflL2UHD69-46">
          <mxGeometry relative="1" as="geometry" />
        </mxCell>
        <mxCell id="FNcLjiw7w3rflL2UHD69-67" value="O sistema deve permitir ao Aluno baixar os documentos que foram solicitados e já processados pela Secretaria." style="html=1;whiteSpace=wrap;" vertex="1" parent="1">
          <mxGeometry x="832.5" y="290" width="255" height="60" as="geometry" />
        </mxCell>
      </root>
    </mxGraphModel>
  </diagram>
</mxfile>
